# xmcd
#
# Track frame offsets: 
#        150
#        15299
#        26951
#        36874
#        55100
#        71304
#
# Disc length: 1150 seconds
#
# Revision: 0
# Processed by: cddbd v1.5.2PL0 Copyright (c) Steve Scherf et al.
# Submitted via: ExactAudioCopyFreeDBPlugin 1.0
#
DISCID=42047c06
DTITLE=Hot Seats - Leftovers
DYEAR=2012
DGENRE=Country
TTITLE0=yonder comes a sucker
TTITLE1=shaking down the acorns
TTITLE2=benjo
TTITLE3=ragged but right
TTITLE4=texas gals
TTITLE5=couch song
EXTD=
EXTT0=
EXTT1=
EXTT2=
EXTT3=
EXTT4=
EXTT5=
PLAYORDER=
